<svg width="24" height="24" viewBox="0 0 24 24" fill="none" xmlns="http://www.w3.org/2000/svg">
<path d="M21.3333 0H2.66667C1.194 0 0 1.194 0 2.66667V17.3333H24V2.66667C24 1.194 22.806 0 21.3333 0Z" fill="#226699"/>
<path d="M6.66666 24V4.66667L9.33332 2H10.6667L13.3333 4.66667V24H6.66666ZM22 7.33333C22 6.66667 21.3333 6.66667 21.3333 6.66667H16.6667C16.6667 6.66667 16 6.66667 16 7.33333V24H22V7.33333Z" fill="#3F484C"/>
<path d="M18.6667 12.6667C18.6667 12 18 12 18 12H12.6667C12 12 12 12.6667 12 12.6667V24H18.6667V12.6667ZM7.33333 14H4V9.33332C4 9.33332 4 8.66666 3.33333 8.66666H0V21.3333C0 22.806 1.194 24 2.66667 24H8V14.6667C8 14.6667 8 14 7.33333 14ZM21.3333 16.6667C20.6667 16.6667 20.6667 17.3333 20.6667 17.3333V24H21.3333C22.806 24 24 22.806 24 21.3333V16.6667H21.3333Z" fill="#292F33"/>
<path d="M5.33333 20.6667H6.66667V22H5.33333V20.6667ZM5.33333 15.3333H6.66667V16.6667H5.33333V15.3333ZM4 18H5.33333V19.3333H4V18ZM10.6667 6H12V7.33333H10.6667V6ZM10.6667 8.66667H12V10H10.6667V8.66667ZM9.33333 11.3333H10.6667V12.6667H9.33333V11.3333ZM16 13.3333H17.3333V14.6667H16V13.3333ZM14.6667 16H16V17.3333H14.6667V16ZM13.3333 20H14.6667V21.3333H13.3333V20ZM19.3333 8H20.6667V9.33333H19.3333V8ZM19.3333 10.6667H20.6667V12H19.3333V10.6667Z" fill="#FFCC4D"/>
<path d="M6.99999 2.00001C7.18408 2.00001 7.33332 1.85077 7.33332 1.66668C7.33332 1.48258 7.18408 1.33334 6.99999 1.33334C6.81589 1.33334 6.66666 1.48258 6.66666 1.66668C6.66666 1.85077 6.81589 2.00001 6.99999 2.00001Z" fill="white"/>
<path d="M4.99999 8.00001C5.18408 8.00001 5.33332 7.85077 5.33332 7.66668C5.33332 7.48258 5.18408 7.33334 4.99999 7.33334C4.81589 7.33334 4.66666 7.48258 4.66666 7.66668C4.66666 7.85077 4.81589 8.00001 4.99999 8.00001Z" fill="white"/>
<path d="M14.6667 3.99999C15.0349 3.99999 15.3333 3.70151 15.3333 3.33332C15.3333 2.96513 15.0349 2.66666 14.6667 2.66666C14.2985 2.66666 14 2.96513 14 3.33332C14 3.70151 14.2985 3.99999 14.6667 3.99999Z" fill="white"/>
<path d="M17.6667 4.00001C17.8508 4.00001 18 3.85077 18 3.66668C18 3.48258 17.8508 3.33334 17.6667 3.33334C17.4826 3.33334 17.3333 3.48258 17.3333 3.66668C17.3333 3.85077 17.4826 4.00001 17.6667 4.00001Z" fill="white"/>
<path d="M20.6667 2.66668C21.0349 2.66668 21.3333 2.3682 21.3333 2.00001C21.3333 1.63182 21.0349 1.33334 20.6667 1.33334C20.2985 1.33334 20 1.63182 20 2.00001C20 2.3682 20.2985 2.66668 20.6667 2.66668Z" fill="white"/>
<path d="M21 5.33332C21.1841 5.33332 21.3333 5.18408 21.3333 4.99999C21.3333 4.81589 21.1841 4.66666 21 4.66666C20.8159 4.66666 20.6667 4.81589 20.6667 4.99999C20.6667 5.18408 20.8159 5.33332 21 5.33332Z" fill="white"/>
<path d="M4.33334 4.66668C3.41268 4.66668 2.66668 3.92068 2.66668 3.00001C2.66668 2.24668 3.17001 1.61734 3.85601 1.41134C3.68868 1.36534 3.51534 1.33334 3.33334 1.33334C2.22868 1.33334 1.33334 2.22868 1.33334 3.33334C1.33334 4.43801 2.22868 5.33334 3.33334 5.33334C3.97268 5.33334 4.53534 5.02801 4.90201 4.56068C4.72334 4.62534 4.53401 4.66668 4.33334 4.66668Z" fill="white"/>
</svg>
